<svg width="150" height="200" viewBox="0 0 150 200" fill="none" xmlns="http://www.w3.org/2000/svg">
<path d="M147.842 97.7433L80.0988 3.05645C79.494 2.21195 78.6967 1.52363 77.773 1.04845C76.8493 0.573264 75.8257 0.324881 74.787 0.323853H74.7714C73.7288 0.326031 72.7018 0.576989 71.7756 1.05588C70.8495 1.53476 70.051 2.22775 69.4466 3.07725L2.14039 97.764C1.44458 98.743 1.03205 99.8947 0.948108 101.093C0.86417 102.291 1.11208 103.489 1.66459 104.555C2.21404 105.623 3.04757 106.518 4.07335 107.143C5.09912 107.767 6.27734 108.096 7.47819 108.094H39.154L39.1514 193.137C39.1511 193.996 39.32 194.847 39.6487 195.641C39.9774 196.434 40.4592 197.155 41.0668 197.763C41.6743 198.37 42.3956 198.852 43.1894 199.18C43.9832 199.508 44.834 199.677 45.693 199.676L104.3 199.674C105.159 199.674 106.01 199.505 106.804 199.176C107.598 198.847 108.319 198.365 108.927 197.757C109.534 197.15 110.016 196.428 110.345 195.634C110.673 194.84 110.842 193.989 110.841 193.129V108.096H142.527C144.971 108.096 147.215 106.718 148.344 104.542C148.894 103.473 149.138 102.272 149.05 101.072C148.961 99.8724 148.543 98.7205 147.842 97.7433Z" fill="black"/>
</svg>
